<svg aria-hidden="true" style="width:0;height:0;position:absolute;overflow:hidden" xmlns="http://www.w3.org/2000/svg"><defs><symbol id="icon-call" viewBox="0 0 32 32"><path d="M14.667 4.333h2.667c4.341 0 8.108 2.443 10.012 6.027-1.191-4.985-5.663-8.694-11.012-8.694h-.667c-5.349 0-9.821 3.709-11.012 8.694 1.904-3.584 5.671-6.027 10.012-6.027z"/><path d="M4.409 12.015a.333.333 0 0 1-.331-.373v.002C4.759 5.766 9.741 1.333 15.667 1.333h.667c5.917 0 10.899 4.426 11.587 10.295l.002.034a.333.333 0 0 1-.663.046v-.002C26.611 6.173 21.915 2 16.335 2h-.667C10.081 2 5.383 6.179 4.741 11.721a.333.333 0 0 1-.33.295z"/><path d="M27.345 10.694a.331.331 0 0 1-.293-.176l-.001-.002c-1.882-3.506-5.523-5.85-9.712-5.85H14.661a10.984 10.984 0 0 0-9.682 5.791l-.029.059a.333.333 0 0 1-.618-.236v.002c1.252-5.17 5.839-8.949 11.309-8.949H16.362c5.47 0 10.058 3.78 11.293 8.871l.016.079a.333.333 0 0 1-.324.41zM14.667 4h2.667c3.422 0 6.609 1.489 8.797 4.007C24.285 4.415 20.605 2 16.361 2H15.64a10.951 10.951 0 0 0-9.742 5.945l-.029.061a11.617 11.617 0 0 1 8.787-4.007h.011-.001z"/><path d="M8.986 5.01h-.001a.333.333 0 0 1-.209-.593h.001A10.974 10.974 0 0 1 15.667 2h.667c1.566 0 3.078.321 4.495.953a.333.333 0 1 1-.274.607l.002.001a10.12 10.12 0 0 0-4.198-.895H15.666c-2.457 0-4.715.856-6.492 2.285l.02-.016a.328.328 0 0 1-.208.074h-.001zM4.333 21.667H5v-8h-.667a2.667 2.667 0 0 0-2.667 2.667v2.667a2.667 2.667 0 0 0 2.667 2.667z"/><path d="M3.707 21.926h-.002a.295.295 0 0 1-.079-.01h.002a2.997 2.997 0 0 1-2.295-2.909V16.331a3.005 3.005 0 0 1 2.204-2.894l.021-.005a.333.333 0 1 1 .174.643l-.002.001A2.341 2.341 0 0 0 2 16.331v2.674c0 1.092.753 2.008 1.768 2.258l.016.003a.333.333 0 0 1-.075.658h-.002z"/><path d="M2.333 19.333A.333.333 0 0 1 2 19v-2.667c0-1.008.643-1.899 1.601-2.215a.333.333 0 0 1 .212.631l-.002.001a1.669 1.669 0 0 0-1.144 1.581V19a.333.333 0 0 1-.333.333zM6.667 23H6a1 1 0 0 1-1-1v-8.667a1 1 0 0 1 1-1h.667a1 1 0 0 1 1 1V22a1 1 0 0 1-1 1z"/><path d="M6.667 23.333H6A1.335 1.335 0 0 1 4.667 22v-8.667C4.667 12.598 5.265 12 6 12h.667C7.402 12 8 12.598 8 13.333V22c0 .735-.598 1.333-1.333 1.333zM6 12.667a.668.668 0 0 0-.667.667v8.667c0 .367.299.667.667.667h.667a.668.668 0 0 0 .667-.667v-8.667a.668.668 0 0 0-.667-.667H6z"/><path d="M5.667 21.667a.333.333 0 0 1-.333-.333v-8c0-.367.299-.667.667-.667h.333a.333.333 0 1 1 0 .666h-.333v8a.333.333 0 0 1-.333.333zM18.333 29.667h-4.667a.333.333 0 1 1 0-.666h4.667a9.05 9.05 0 0 0 8.126-5.126.333.333 0 0 1 .627.16c0 .046-.009.09-.026.13l.001-.002a9.721 9.721 0 0 1-8.728 5.505z"/><path d="M18.333 30.333h-4a.667.667 0 0 1-.667-.667v-.667c0-.368.298-.667.667-.667h4c.368 0 .667.298.667.667v.667a.667.667 0 0 1-.667.667z"/><path d="M18.333 30.667h-4c-.551 0-1-.449-1-1V29c0-.551.449-1 1-1h4c.551 0 1 .449 1 1v.667c0 .551-.449 1-1 1zm-4-2A.333.333 0 0 0 14 29v.667c0 .184.149.333.333.333h4a.333.333 0 0 0 .333-.333V29a.333.333 0 0 0-.333-.333h-4z"/><path d="M14.333 29.667a.333.333 0 0 1-.333-.333v-.667h3.667a.333.333 0 1 1 0 .666h-3a.333.333 0 0 1-.333.333zM27.667 21.667H27v-8h.667a2.667 2.667 0 0 1 2.667 2.667v2.667a2.667 2.667 0 0 1-2.667 2.667z"/><path d="M28.299 21.925a.333.333 0 0 1-.08-.657h.002A2.33 2.33 0 0 0 30 19.007V16.334c0-1.053-.709-1.98-1.725-2.253a.333.333 0 1 1 .175-.643l-.002-.001a3.012 3.012 0 0 1 2.219 2.897v2.674c0 1.403-.965 2.58-2.268 2.904l-.021.004a.33.33 0 0 1-.079.009z"/><path d="M27.667 21a.333.333 0 0 1-.333-.333v-6a.333.333 0 1 1 .666 0v6a.333.333 0 0 1-.333.333zM26 23h-.667a1 1 0 0 1-1-1v-8.667a1 1 0 0 1 1-1H26a1 1 0 0 1 1 1V22a1 1 0 0 1-1 1z"/><path d="M26 23.333h-.667A1.335 1.335 0 0 1 24 22v-8.667c0-.735.598-1.333 1.333-1.333H26c.735 0 1.333.598 1.333 1.333V22c0 .735-.598 1.333-1.333 1.333zm-.667-10.666a.668.668 0 0 0-.667.667v8.667c0 .367.299.667.667.667H26a.668.668 0 0 0 .667-.667v-8.667a.668.668 0 0 0-.667-.667h-.667z"/><path d="M25 21.667a.333.333 0 0 1-.333-.333v-8c0-.367.299-.667.667-.667h.333a.333.333 0 1 1 0 .666h-.333v8a.333.333 0 0 1-.333.333z"/></symbol><symbol id="icon-contract" viewBox="0 0 32 32"><path d="M8.002 0c-1.655 0-3 1.347-3 3.001v20.996H.498a.5.5 0 0 0-.498.5v4.502A3.007 3.007 0 0 0 3.002 32H26.509a2.995 2.995 0 0 0 2.995-2.995V25.5H31.5a.5.5 0 0 0 .5-.5v-8.503a.5.5 0 0 0-.5-.498h-1.996V7.002h1.003a.5.5 0 0 0 .5-.5V3.001A3.008 3.008 0 0 0 28.005 0zm0 1h.013c1.097 0 1.986.889 1.986 1.986v.015V3v3.501a.5.5 0 0 0 .5.5h18.006v9.495c-.45-.09-.922-.299-1.317-.457-.529-.215-1.158-.479-1.827-.744l1.377-2.385a1.504 1.504 0 0 0-.543-2.044l-.007-.004-.867-.498a1.507 1.507 0 0 0-2.05.546l-3.358 5.814-4.41 2.546a2.007 2.007 0 0 0-.735 2.732c.283.483.749.832 1.3.954l.013.002a1.948 1.948 0 0 0-.077.539c-.143.298-.175.628-.226.922-.117.887-.18 1.7-.245 2.58L13.631 27a1.369 1.369 0 0 0-1.131-.492 1.906 1.906 0 0 0-.517.12l.013-.004a1.856 1.856 0 0 0-.807-.965c-.644-.372-1.451-.299-2.09.126a2.485 2.485 0 0 0-1.095 1.893v.008a.5.5 0 1 0 .996.063v-.001c.028-.44.287-.889.653-1.133.367-.245.752-.253 1.037-.089s.463.502.435.942a.501.501 0 0 0 .88.362c.143-.163.364-.302.517-.321.084-.01.255-.021.45.27a.498.498 0 0 0 .413.221h2.575a.495.495 0 0 0 .32-.082c1.029-.698 2.242-1.512 2.91-2.108.107-.098.188-.17.274-.309h4.045c1.471 0 3.242-.419 4.998-.491V29c0 1.1-.884 2-2 2H5.242c.471-.53.759-1.231.76-2V2.985c0-1.096.888-1.984 1.984-1.984h.017-.001zm.5 7.998-.022-.001a.5.5 0 1 0 0 1.002l.023-.001h-.001 12.253a.5.5 0 0 0 0-1.002zm0 3.001a.5.5 0 0 0 0 1h10.001a.5.5 0 0 0 0-1zm14.389 1.577 1.732 1-4 6.923h-2.307zM8.502 15l-.022-.001a.5.5 0 0 0 0 1l.023-.001h-.001 7.753a.5.5 0 1 0 0-.998zm16.355 1.169c.703.277 1.377.562 1.953.797.538.233 1.394.556 1.698.532v6.509c-1.904.068-3.721.493-4.998.493h-5.501c-.563 0-1-.439-1-1.001s.437-1 1-1h3.995a.5.5 0 0 0 0-1h-.225zM8 18.498v.002a.5.5 0 0 0 .5.5h5.503a.5.5 0 0 0 0-1H8.489a.501.501 0 0 0-.489.498zm10.917-.047-1.914 3.316c-.102.06-.201.137-.306.216a.998.998 0 0 1-1.059-.48.992.992 0 0 1 .36-1.368l.005-.003zM8.51 22.997a.5.5 0 0 0 0 1h4.994a.5.5 0 0 0 0-1zm8.203 2.023a1.99 1.99 0 0 0 1.273.48c-.366.28-.824.609-1.291.927l-.116.074c.033-.537.075-.933.133-1.48z"/></symbol><symbol id="icon-laboratory" viewBox="0 0 32 32"><path d="M15.992 24.679a1.998 1.998 0 0 1-1.998-1.996v-9.054c1.41.741 2.782-.79 3.995 0v9.054a1.997 1.997 0 0 1-1.996 1.997z"/><path d="M16.901 24.012a1.998 1.998 0 0 1-1.998-1.996v-8.178c-.3.005-.604-.048-.909-.209v9.054a1.998 1.998 0 0 0 1.998 1.997h.002a1.99 1.99 0 0 0 1.581-.779l.003-.005c-.2.074-.431.117-.672.117H16.9z"/><path d="M16.058 25.236a2.366 2.366 0 0 1-2.363-2.363V4.439a.31.31 0 0 1 .311-.311h4.106a.31.31 0 0 1 .311.311V22.873a2.366 2.366 0 0 1-2.363 2.363zM14.319 4.753v18.12a1.74 1.74 0 0 0 3.478 0V4.753z"/><path d="M18.621 4.753h-5.126a.904.904 0 0 1 0-1.808h5.126a.904.904 0 0 1 0 1.808zM13.495 3.57a.28.28 0 0 0 0 .558h5.126a.28.28 0 0 0 0-.558zm4.476 3.375h-1.08a.312.312 0 0 1 0-.624h1.08a.312.312 0 0 1 0 .624zm0 2.683h-1.08a.312.312 0 0 1 0-.624h1.08a.312.312 0 0 1 0 .624zm0 2.683h-1.08a.312.312 0 0 1 0-.624h1.08a.312.312 0 0 1 0 .624zm0 2.684h-1.08a.312.312 0 0 1 0-.624h1.08a.312.312 0 0 1 0 .624zm0 2.683h-1.08a.312.312 0 0 1 0-.624h1.08a.312.312 0 0 1 0 .624zm0 2.682h-1.08a.312.312 0 0 1 0-.624h1.08a.312.312 0 0 1 0 .624zm0 2.683h-1.08a.312.312 0 0 1 0-.624h1.08a.312.312 0 0 1 0 .624zM16.389 20.797a.301.301 0 1 1-.603 0 .301.301 0 0 1 .603 0zM15.786 17.906a.228.228 0 1 1-.456 0 .228.228 0 0 1 .456 0zM17.283 16.265a.449.449 0 1 1-.897-.001.449.449 0 0 1 .897.001zM16.389 15.313a.198.198 0 1 1-.396 0 .198.198 0 0 1 .396 0zM17.122 18.946a.367.367 0 1 1-.733 0 .367.367 0 0 1 .733 0zM15.707 19.281a.126.126 0 1 1-.252 0 .126.126 0 0 1 .252 0zM15.708 22.703c0 .104-.085.189-.189.189s-.189-.085-.189-.189.085-.189.189-.189.189.085.189.189zM8.526 24.679a1.997 1.997 0 0 1-1.997-1.997v-9.054c1.41.741 2.78-.79 3.995 0v9.054a1.998 1.998 0 0 1-1.998 1.997z"/><path d="M9.435 24.012a1.997 1.997 0 0 1-1.997-1.997v-8.178a1.83 1.83 0 0 1-.909-.209v9.054c0 1.103.894 1.997 1.997 1.997h.002c.644 0 1.217-.305 1.582-.779l.003-.005a1.96 1.96 0 0 1-.673.117h-.006z"/><path d="M8.593 25.236a2.367 2.367 0 0 1-2.365-2.363V4.441c0-.172.14-.312.312-.312h4.104c.172 0 .312.14.312.312v18.432a2.366 2.366 0 0 1-2.363 2.363zM6.853 4.753v18.12c0 .958.78 1.739 1.74 1.739a1.742 1.742 0 0 0 1.739-1.739V4.753z"/><path d="M11.155 4.753H6.03a.904.904 0 0 1 0-1.808h5.125a.904.904 0 0 1 0 1.808zM6.03 3.57a.28.28 0 0 0 0 .558h5.125a.28.28 0 0 0 0-.558zm4.477 3.375h-1.08a.312.312 0 0 1 0-.624h1.08a.312.312 0 0 1 0 .624zm0 2.683h-1.08a.312.312 0 0 1 0-.624h1.08a.312.312 0 0 1 0 .624zm0 2.683h-1.08a.312.312 0 0 1 0-.624h1.08a.312.312 0 0 1 0 .624zm0 2.684h-1.08a.312.312 0 0 1 0-.624h1.08a.312.312 0 0 1 0 .624zm0 2.683h-1.08a.312.312 0 0 1 0-.624h1.08a.312.312 0 0 1 0 .624zm0 2.682h-1.08a.312.312 0 0 1 0-.624h1.08a.312.312 0 0 1 0 .624zm0 2.683h-1.08a.312.312 0 0 1 0-.624h1.08a.312.312 0 0 1 0 .624zM8.924 20.797a.301.301 0 1 1-.603 0 .301.301 0 0 1 .603 0zM8.322 17.906a.228.228 0 1 1-.456 0 .228.228 0 0 1 .456 0zM9.819 16.265a.449.449 0 1 1-.897-.001.449.449 0 0 1 .897.001zM8.923 15.313a.198.198 0 1 1-.396 0 .198.198 0 0 1 .396 0zM9.658 18.946a.367.367 0 1 1-.733 0 .367.367 0 0 1 .733 0zM8.242 19.281a.126.126 0 1 1-.252 0 .126.126 0 0 1 .252 0zM8.242 22.703c0 .104-.085.189-.189.189s-.189-.085-.189-.189.085-.189.189-.189.189.085.189.189zM23.457 24.679a1.998 1.998 0 0 1-1.998-1.996v-9.054c1.41.741 2.782-.79 3.996 0v9.054a1.998 1.998 0 0 1-1.998 1.997z"/><path d="M24.365 24.012a1.998 1.998 0 0 1-1.998-1.996v-8.178c-.3.005-.603-.048-.909-.209v9.054a1.998 1.998 0 0 0 1.998 1.997h.002c.644 0 1.217-.305 1.582-.779l.003-.005a1.96 1.96 0 0 1-.673.117h-.006z"/><path d="M23.522 25.236a2.366 2.366 0 0 1-2.363-2.363V4.441c0-.172.14-.312.312-.312h4.104a.31.31 0 0 1 .311.311V22.874a2.366 2.366 0 0 1-2.363 2.363zM21.783 4.753v18.12a1.74 1.74 0 0 0 3.478 0V4.753z"/><path d="M26.085 4.753H20.96a.904.904 0 0 1 0-1.808h5.125a.904.904 0 0 1 0 1.808zM20.961 3.57a.28.28 0 0 0 0 .558h5.125a.28.28 0 0 0 0-.558zm4.477 3.375h-1.082a.312.312 0 0 1 0-.624h1.082a.312.312 0 0 1 0 .624zm0 2.683h-1.082a.312.312 0 0 1 0-.624h1.082a.312.312 0 0 1 0 .624zm0 2.683h-1.082a.312.312 0 0 1 0-.624h1.082a.312.312 0 0 1 0 .624zm0 2.684h-1.082a.312.312 0 0 1 0-.624h1.082a.312.312 0 0 1 0 .624zm0 2.683h-1.082a.312.312 0 0 1 0-.624h1.082a.312.312 0 0 1 0 .624zm0 2.682h-1.082a.312.312 0 0 1 0-.624h1.082a.312.312 0 0 1 0 .624zm0 2.683h-1.082a.312.312 0 0 1 0-.624h1.082a.312.312 0 0 1 0 .624zM4.708 27.045H3.424a.31.31 0 0 1-.311-.311V7.532c0-.172.14-.312.312-.312h1.282c.172.001.311.14.312.312v19.2c0 .172-.14.312-.312.312zm23.981 0h-1.282a.312.312 0 0 1-.312-.312v-19.2a.314.314 0 0 1 .312-.312h1.282c.172 0 .312.14.312.312V26.735a.31.31 0 0 1-.311.311h-.002z"/><path d="M4.037 26.007a.28.28 0 0 1-.279-.279V8.539a.28.28 0 0 1 .279-.279h.983v-.726a.314.314 0 0 0-.312-.312H3.426a.312.312 0 0 0-.312.312V26.736a.31.31 0 0 0 .311.311h1.283c.172 0 .312-.14.312-.312v-.726zm24.059 0a.28.28 0 0 1-.279-.279V8.539a.28.28 0 0 1 .279-.279h.905v-.726a.312.312 0 0 0-.312-.312h-1.282a.314.314 0 0 0-.312.312v19.2c0 .172.14.312.312.312h1.284a.31.31 0 0 0 .311-.311v-.728z"/><path d="M29.833 7.845H2.06a.31.31 0 0 1-.311-.311V6.25c0-.172.14-.312.312-.312h27.771c.172.001.311.14.312.312v1.282c0 .172-.14.312-.312.312z"/><path d="M3.17 7.221a.312.312 0 0 1-.312-.312V5.94h-.796a.312.312 0 0 0-.312.312v1.284a.31.31 0 0 0 .311.311h27.773c.172 0 .312-.14.312-.312v-.312zM29.938 29.054H2.178a.312.312 0 0 1-.312-.312v-2.009c0-.172.14-.312.312-.312h27.76c.172 0 .312.14.312.312v2.009c0 .172-.14.312-.312.312z"/><path d="M3.551 28.252a.314.314 0 0 1-.312-.312v-1.519H2.178a.312.312 0 0 0-.312.312v2.009c0 .172.14.312.312.312h27.76c.172 0 .312-.14.312-.312v-.49z"/><path d="M9.147 26.421h18.017c.306 0 .554.248.554.554v.001a.554.554 0 0 1-.554.554H9.147a.554.554 0 0 1-.554-.554v-.001c0-.306.248-.554.554-.554zM28.635 11.522h-.002c.203 0 .368.165.368.368v10.472a.368.368 0 0 1-.368.368h.002a.368.368 0 0 1-.368-.368V11.89c0-.203.165-.368.368-.368zM4.652 12.834h.002c.203 0 .367.164.367.367v11.111a.367.367 0 0 1-.367.367h-.002a.367.367 0 0 1-.367-.367V13.201c0-.203.164-.367.367-.367zM7.964 5.939H25.97c.263 0 .476.213.476.476v.001a.476.476 0 0 1-.476.476H7.964a.476.476 0 0 1-.476-.476v-.001c0-.263.213-.476.476-.476zM23.853 20.797a.301.301 0 1 1-.603 0 .301.301 0 0 1 .603 0zM23.252 17.906a.228.228 0 1 1-.456 0 .228.228 0 0 1 .456 0zM24.749 16.265a.449.449 0 1 1-.897-.001.449.449 0 0 1 .897.001zM23.853 15.313a.198.198 0 1 1-.396 0 .198.198 0 0 1 .396 0zM24.587 18.946a.367.367 0 1 1-.733 0 .367.367 0 0 1 .733 0zM23.171 19.281a.126.126 0 1 1-.252 0 .126.126 0 0 1 .252 0zM23.173 22.703c0 .104-.085.189-.189.189s-.189-.085-.189-.189.085-.189.189-.189.189.085.189.189z"/></symbol><symbol id="icon-paper" viewBox="0 0 32 32"><path d="M27.348 21.751h-3.2v5.651a1.974 1.974 0 0 1-1.922 1.971.55.55 0 0 0 .195.038h7.312a.545.545 0 0 0 .545-.545v-7.45a.545.545 0 0 0-.545-.545h-.743c-.354.53-.958.879-1.641.879zm1.702-5.821v-.003l-.027.01.027-.007z"/><path d="M25.629 18.075h-3.456c-.47.001-.895.191-1.204.499a1.712 1.712 0 0 0-.499 1.203v7.626a1.702 1.702 0 1 0 3.404 0v-5.924h3.474a1.702 1.702 0 0 0 1.7-1.702v-1.82h-3.431l.009.118z"/><path d="M18.97 27.402v-5.924h1.228v-1.702a1.955 1.955 0 0 1 .971-1.697l.009-.005h-3.91c-.339 0-.673.105-.953.293l.014.013c.356.358.577.851.578 1.396v7.626c0 .552-.228 1.051-.594 1.409.267.183.597.293.952.293h.003c.94 0 1.702-.762 1.702-1.702zM27.364 5.651a3.064 3.064 0 1 1-6.129 0 3.064 3.064 0 0 1 6.129 0zM2.879 17.111v-.789H0v1.226h2.879v-.437zm7.91-.789h20.87v1.226h-20.87zm1.579 12.545v-7.116H4.854a1.96 1.96 0 0 1-.887-.213v7.329c0 .301.244.545.545.545h7.312a.545.545 0 0 0 .545-.545zM7.821 2.61a3.064 3.064 0 0 0-3.064 3.064v.004c0 .704.238 1.352.639 1.868l-.005-.007h4.073c.062 0 .124.005.189.014.055-.006.104-.009.151-.009h.023c.128 0 .258.016.385.045a3.033 3.033 0 0 0 .673-1.911v-.004A3.064 3.064 0 0 0 7.821 2.61z"/><path d="M2.879 13.053c-.267-.207-.38-.385-.436-.526v-.001a.798.798 0 0 1-.047-.227c-.002-.021-.006-.041-.006-.063-.001-.188.063-.438.208-.712.131-.253.331-.517.554-.751v9.002c0 .94.762 1.702 1.702 1.702h8.377v5.924a1.702 1.702 0 1 0 3.404 0v-7.626c0-.448-.181-.887-.498-1.204a1.707 1.707 0 0 0-1.203-.498h-4.416v-2.997c.46.459 1.007.655 1.489.776a6.345 6.345 0 0 0 1.461.157c.405 0 .684-.03.712-.034a1.091 1.091 0 0 0 .964-1.207v.005a1.09 1.09 0 0 0-1.207-.963h.005c-.024.002-.216.02-.474.02a4.222 4.222 0 0 1-.95-.097c-.299-.066-.469-.191-.47-.207-.192-.234-.338-.599-.42-1.074-.129-.711-.096-1.589-.13-2.385-.025-.405-.045-.79-.225-1.244a1.682 1.682 0 0 0-.52-.695 1.546 1.546 0 0 0-.947-.314c-.053 0-.105.005-.155.012a.96.96 0 0 0-.184-.017H4.206c-.082 0-.162.01-.239.028-.419.057-.756.217-1.105.409a6.02 6.02 0 0 0-1.735 1.549c-.496.661-.907 1.475-.914 2.439 0 .054.004.108.007.163.016.319.081.617.187.896l-.007-.02c.005.014.008.028.014.042.273.707.83 1.316 1.591 1.775.265.16.557.305.876.438v-2.476zm14.059 3.136.473-.487c.163.149.374.249.607.276h.005c.029.003.307.033.712.034a6.345 6.345 0 0 0 1.461-.157c.482-.121 1.028-.317 1.489-.776v.836h2.042l.683-5.035c.177.066.363.101.548.101h.001c.186 0 .371-.035.548-.101l.449 3.305a1.35 1.35 0 0 1 .759-.442l.009-.001c1.192-.23 1.856-.531 2.203-.743l.125-.081v-2.141c.223.234.423.498.554.751.145.274.209.523.208.712 0 .022-.004.042-.006.063a.806.806 0 0 1-.047.227v.001a.911.911 0 0 1-.058.117l.003-.005c-.092.163-.266.362-.636.589-.456.279-1.201.568-2.293.778a1.09 1.09 0 0 0-.861 1.283l-.001-.007a1.09 1.09 0 0 0 1.276.862c1.266-.246 2.245-.592 3.01-1.055a4.294 4.294 0 0 0 1.007-.828 3.15 3.15 0 0 0 .584-.947l.014-.042c.099-.258.164-.557.18-.868v-.007c.003-.054.007-.109.007-.163-.007-.965-.418-1.778-.914-2.439a6.007 6.007 0 0 0-1.735-1.549c-.348-.192-.686-.351-1.105-.409A.998.998 0 0 0 28 7.813h-1.159a3.327 3.327 0 0 1-4.989.101 1.412 1.412 0 0 0-.4.218c-.272.21-.427.471-.52.695-.181.455-.2.84-.225 1.244-.034.796-.001 1.673-.13 2.385-.082.475-.228.84-.42 1.074-.001.016-.17.141-.47.207a3.12 3.12 0 0 1-.434.071l.658-.677-.391-.38-1.045 1.076c-.118-.005-.197-.013-.212-.014a1.09 1.09 0 0 0-1.202.958v.005a1.068 1.068 0 0 0 .051.465l-.002-.008-.624.643.391.38.065-.067zM24.44 9.22h1.035l.259 1.021-.039.062a1.142 1.142 0 0 1-.736.267h-.002c-.281 0-.538-.101-.737-.268l.002.001-.04-.063.259-1.021z"/></symbol><symbol id="icon-surveying" viewBox="0 0 32 32"><path d="m17.822 17.264-4.993 9.985v2.781l1.843-1.977 4.825-10.79h-1.675zm9.197.017 4.993 9.985v2.781l-1.843-1.977-4.825-10.79h1.675zm-5.629 0v10.521l.905 2.245 1.173-2.312V17.281H21.39zM17.704 15.069h9.248c.222 0 .402.18.402.402v.938c0 .222-.18.402-.402.402h-9.248a.402.402 0 0 1-.402-.402v-.938c0-.222.18-.402.402-.402zM18.866 9.976h6.053c.198 0 .358.16.358.358v2.769c0 .198-.16.358-.358.358h-6.053a.358.358 0 0 1-.358-.358v-2.769c0-.198.16-.358.358-.358zM25.84 9.44h.651c.181 0 .328.147.328.328v3.901a.328.328 0 0 1-.328.328h-.651a.328.328 0 0 1-.328-.328V9.768c0-.181.147-.328.328-.328z"/><path d="M24.205 13.26c0 .851-1.005 1.541-2.245 1.541s-2.245-.69-2.245-1.541 1.005-1.541 2.245-1.541 2.245.69 2.245 1.541zM3.099 27.144l1.876-4.088v-4.725S4.204 9.317 6.684 7.709"/><path d="m4.892 18.315 3.954 4.691 1.273 4.121M5.682 9.092l-4.677 4.767 3.016 4.054m2.684-10.19 3.716 4.565 5.306-.268M12.733 5.23a2.463 2.463 0 1 1-4.927 0 2.463 2.463 0 0 1 4.927 0zM9.361 2.638l3.451 3.652"/><path d="M9.562 2.772s1.541-1.005 2.848.201.125 3.024.125 3.024z"/></symbol><symbol id="icon-smartphone" viewBox="0 0 20 32"><path d="M17 0H3C1.346 0 0 1.346 0 3v26c0 1.654 1.346 3 3 3h14c1.654 0 3-1.346 3-3V3c0-1.654-1.346-3-3-3zM3 2h14a1 1 0 0 1 1 1v21H2V3a1 1 0 0 1 1-1zm14 28H3a1 1 0 0 1-1-1v-3h16v3a1 1 0 0 1-1 1z"/><path d="M4.707 27.478c.391.365.391.956 0 1.321s-1.024.365-1.414 0c-.391-.365-.391-.956 0-1.321s1.024-.365 1.414 0z"/></symbol><symbol id="icon-envelope" viewBox="0 0 43 32"><path d="M38.667 0H4C1.794 0 0 1.794 0 4v24c0 2.206 1.794 4 4 4h34.667c2.206 0 4-1.794 4-4V4c0-2.206-1.794-4-4-4zm0 2.667c.181 0 .353.038.511.103L21.334 18.236 3.49 2.77a1.32 1.32 0 0 1 .511-.103h34.667zm0 26.666H4A1.334 1.334 0 0 1 2.667 28V5.587L20.46 21.008a1.335 1.335 0 0 0 1.748 0L40.001 5.587V28c0 .736-.598 1.333-1.333 1.333z"/></symbol><symbol id="icon-instagram" viewBox="0 0 32 32"><path d="M31.969 9.408c-.075-1.7-.35-2.869-.744-3.882a7.806 7.806 0 0 0-1.851-2.838A7.867 7.867 0 0 0 26.542.844C25.523.45 24.36.175 22.66.1 20.947.019 20.403 0 16.059 0s-4.888.019-6.595.094c-1.7.075-2.869.35-3.882.744a7.803 7.803 0 0 0-2.838 1.85A7.867 7.867 0 0 0 .9 5.52C.506 6.539.231 7.702.156 9.402c-.081 1.713-.1 2.257-.1 6.601s.019 4.888.094 6.595c.075 1.7.35 2.869.744 3.882a7.895 7.895 0 0 0 1.85 2.838 7.867 7.867 0 0 0 2.832 1.844c1.019.394 2.182.669 3.882.744 1.706.075 2.25.094 6.595.094s4.888-.019 6.595-.094c1.7-.075 2.869-.35 3.882-.744a8.184 8.184 0 0 0 4.682-4.682c.394-1.019.669-2.182.744-3.882.075-1.707.094-2.251.094-6.595s-.006-4.888-.081-6.595zm-2.882 13.065c-.069 1.563-.331 2.407-.55 2.969a5.31 5.31 0 0 1-3.038 3.038c-.563.219-1.413.481-2.969.55-1.688.075-2.194.094-6.464.094s-4.782-.019-6.464-.094c-1.563-.069-2.407-.331-2.969-.55a4.926 4.926 0 0 1-1.838-1.194 4.974 4.974 0 0 1-1.194-1.838c-.219-.563-.481-1.413-.55-2.969-.075-1.688-.094-2.194-.094-6.464s.019-4.782.094-6.464c.069-1.563.331-2.407.55-2.969a4.868 4.868 0 0 1 1.2-1.838A4.974 4.974 0 0 1 6.639 3.55c.563-.219 1.413-.481 2.969-.55 1.688-.075 2.194-.094 6.464-.094 4.276 0 4.782.019 6.464.094 1.563.069 2.407.331 2.969.55a4.914 4.914 0 0 1 1.838 1.194 4.974 4.974 0 0 1 1.194 1.838c.219.563.481 1.413.55 2.969.075 1.688.094 2.194.094 6.464s-.019 4.77-.094 6.458z"/><path d="M16.059 7.783c-4.538 0-8.22 3.682-8.22 8.22s3.682 8.22 8.22 8.22c4.539 0 8.22-3.682 8.22-8.22s-3.682-8.22-8.22-8.22zm0 13.552a5.333 5.333 0 0 1 0-10.664 5.333 5.333 0 0 1 0 10.664zM26.524 7.458a1.919 1.919 0 1 1-3.838 0 1.919 1.919 0 0 1 3.838 0z"/></symbol><symbol id="icon-land-surveyor" viewBox="0 0 18 32"><path d="M7.591.701c.232-.005.292.406.305.964v1.418a.243.243 0 0 0 .482-.001v-1.43.006A2.325 2.325 0 0 0 8.144.509l-.022.002a4.682 4.682 0 0 1 .733-.028h.013c.208.009.414.03.584.057l.006-.011a2.162 2.162 0 0 0-.266 1.165v1.385l.001.002a.26.26 0 0 0 .494-.002v-1.37c.013-.544.073-.94.299-.94a.306.306 0 0 0 .088-.013l.096.047.01.006a2.785 2.785 0 0 1 1.204 2.077l.001.002a.26.26 0 0 0 .497-.022v-.007A2.925 2.925 0 0 0 10.249.376l.019.009A3.41 3.41 0 0 0 8.877.001h.007a3.016 3.016 0 0 0-1.399.268C6.607.652 5.899 1.49 5.712 2.873v-.001l-.001.02c0 .125.095.228.217.241h-.001l.024.001a.26.26 0 0 0 .255-.209c.232-1.182.734-1.898 1.302-2.224h-.001a.186.186 0 0 0 .082 0zm.115 30.192h.406l-.453-10.417h-.352l-5.258 9.276h.242a.188.188 0 0 1 .185.187v.737a.19.19 0 0 1-.185.185H.184a.187.187 0 0 1-.185-.185v-.732c0-.102.083-.185.185-.185H.52l4.503-9.297H3.83a.156.156 0 0 1-.156-.156v-2.227c0-.088.071-.159.159-.159h2.638a3.004 3.004 0 0 1-.763-2.005c0-.114.008-.226.022-.336l-.001.013H2.5a.325.325 0 0 1-.323-.323v-.948l-.615-.109a.411.411 0 0 1-.38-.379v-.345a.414.414 0 0 1 .379-.378h.001l.607-.109v-.948a.325.325 0 0 1 .325-.323h12.753v-.521a.296.296 0 0 1 .297-.294h1.229a.296.296 0 0 1 .294.294v4.899a.297.297 0 0 1-.294.297h-1.229a.297.297 0 0 1-.297-.297v-.521h-3.456c.012.093.018.201.018.311v.013-.001.003c0 .77-.288 1.472-.763 2.005l.003-.003h2.638c.086 0 .156.07.156.156v2.24c0 .086-.07.156-.156.156h-1.188l4.513 9.289h.349a.188.188 0 0 1 .185.187v.737a.19.19 0 0 1-.185.185h-2.112a.187.187 0 0 1-.185-.185v-.738c0-.102.083-.185.185-.185h.221l-5.26-9.297h-.352l-.453 10.43h.406a.187.187 0 0 1 .185.185v.737a.19.19 0 0 1-.185.185H7.704a.187.187 0 0 1-.185-.185v-.737c0-.102.083-.185.185-.185zm-.675-15.299a1.623 1.623 0 0 0 .465 1.502l.001.001a1.803 1.803 0 0 0 2.511 0c.306-.3.497-.718.497-1.18v-.005c0-.113-.011-.223-.033-.329l.002.011zM11.654 3.94l.026.299a.348.348 0 0 1 .103.048l-.001-.001a.383.383 0 0 1 .116.131l.001.002a.598.598 0 0 1 .067.213v.003a1.052 1.052 0 0 1-.001.266l.001-.005c-.01.099-.026.187-.047.274l.003-.013a1.703 1.703 0 0 1-.088.272l.004-.012c-.062.16-.145.298-.249.419l.002-.002a.555.555 0 0 1-.272.174l-.004.001-.021.073a2.515 2.515 0 0 0-.036.117c-.081.369-.23.694-.435.976l.005-.008q-.078.099-.164.188a1.667 1.667 0 0 1-.122.117l.001.017-.001.018v-.001.781a.23.23 0 0 1 .186.001l-.001-.001c3.646 1.469 3.497.521 3.849 2.56H2.938c.315-2.003.078-1.042 3.885-2.555a.114.114 0 0 1 .038-.013h.001v-.781a.162.162 0 0 1 .019-.069v.001l-.07-.065-.128-.138a2.112 2.112 0 0 1-.317-.507l-.005-.014a5.223 5.223 0 0 1-.213-.564l-.011-.04-.031-.112a.452.452 0 0 1-.24-.11.941.941 0 0 1-.229-.302l-.002-.006a1.54 1.54 0 0 1-.109-.28l-.003-.011a1.612 1.612 0 0 1-.052-.312v-.005a1.273 1.273 0 0 1 0-.322l-.001.006a.664.664 0 0 1 .082-.264l-.002.003a.437.437 0 0 1 .118-.124l.001-.001a.397.397 0 0 1 .096-.041l.003-.001.029-.279v-.036a1.373 1.373 0 0 1-.517-.542l-.004-.007.453-.188c.084.155.206.28.355.365l.005.002c.552.344 1.526.521 2.529.521a6.786 6.786 0 0 0 2.749-.49l-.046.016c.226-.094.414-.24.555-.424l.002-.003.427.245a1.682 1.682 0 0 1-.633.543l-.01.004zm-5.232.276-.076.448a.076.076 0 0 1-.075.064l-.014-.001h-.029l-.273-.177h-.013c-.047 0-.081 0-.115.039a.327.327 0 0 0-.034.127v.001a.93.93 0 0 0 0 .223v-.005c.012.099.03.187.055.273l-.003-.012c.026.089.057.166.095.239l-.003-.007a.628.628 0 0 0 .14.198c.021.02.049.032.081.032l.016-.001h-.001a.172.172 0 0 1 .124.016h-.001c.039.02.068.054.08.095v.001c.029.089.039.112.049.141l.034.107c.101.384.268.72.489 1.012l-.005-.007c.107.124.224.234.351.332l.006.004c.128.092.274.179.428.253l.017.008.091.044.099.039c.112.044.244.081.382.107l.014.002c.118.025.254.039.393.039l.069.001c.143 0 .283-.014.419-.04l-.014.002a2.45 2.45 0 0 0 .464-.144l-.016.006.086-.039c.173-.084.321-.177.458-.285l-.005.004c.137-.109.257-.229.364-.36l.003-.004c.086-.111.159-.238.215-.375l.004-.011c.057-.141.102-.297.154-.469l.016-.055c.023-.078.047-.159.076-.245a.175.175 0 0 1 .075-.106h.001a.182.182 0 0 1 .093-.025l.027.002h-.001c.036 0 .081-.021.125-.073.074-.089.134-.193.175-.305l.002-.007c.025-.061.049-.135.068-.212l.002-.012c.017-.063.03-.138.036-.214v-.005a.77.77 0 0 0 0-.178v.004a.272.272 0 0 0-.029-.111l.001.002c-.021-.036-.036-.057-.052-.063a.11.11 0 0 0-.073 0h.001c-.044.026-.073.047-.099.065a.854.854 0 0 1-.28.134l-.006.001a.064.064 0 0 1-.02.003.081.081 0 0 1-.076-.054v-.017l-.049-.443c-1.302.383-3.253.432-4.526 0zm3.82 3.529-.216.13a.968.968 0 0 1-.133.065l-.007.003c-.166.082-.36.152-.562.199l-.019.004a2.369 2.369 0 0 1-.556.065H8.72h.001a2.491 2.491 0 0 1-.48-.06l.016.003a2.94 2.94 0 0 1-.485-.153l.019.007a2.645 2.645 0 0 1-.34-.156l.015.007a2.727 2.727 0 0 1-.289-.168l.01.006v.555l1.531.589 1.531-.445v-.651z"/></symbol><symbol id="icon-meeting" viewBox="0 0 32 32"><path d="M26.013 12.673a2 2 0 1 1-3.999.001 2 2 0 0 1 3.999-.001zM18 9.713a2 2 0 1 1-3.999.001A2 2 0 0 1 18 9.713zM19.333 16.667v-2a2 2 0 0 0-2-2h-2.667a2 2 0 0 0-2 2v2h6.667zM10.06 12.673a2 2 0 1 1-3.999.001 2 2 0 0 1 3.999-.001z"/><path d="M25.373 15.653H24.04c-1.104 0-2.373.895-2.373 2l3.627 5.053h2.053v-5.053a2 2 0 0 0-1.972-2h-.001zm-13.706 1.67L9.54 20.666H8l2.333-3.333c0-1.107-.893-1.7-2-1.7H6.692a2 2 0 0 0-2 2v3.7c0 .736.597 1.333 1.333 1.333H11l-.04.695H7.44L6 25.978h20l-5.667-8.655h-8.667z"/></symbol><symbol id="icon-construction" viewBox="0 0 32 32"><path d="M1.5 26h-1c0 2.35 1.9 4.25 4.25 4.25H31.5v-26H5.25V.5h-.5C2.4.5.5 2.4.5 4.75V26h1c0-1.8 1.45-3.25 3.25-3.25h.5V5.25H30.5v24H4.75c-1.8 0-3.25-1.45-3.25-3.25zm2.75-4.225A4.228 4.228 0 0 0 1.5 23.25V4.75c0-1.625 1.2-2.975 2.75-3.2v20.225z"/><path d="M25.75 7.25h-3v16.875l1.5 3 1.5-3V7.25zm-1 1V11h-1V8.25h1zm-.5 16.625-.5-1V12h1v11.875l-.5 1zM10.5 19.25v1h2l-1.25 6.925.975.175 1.275-7.1h3l1.275 7.1.975-.175-1.25-6.925h2v-1h-2.175l-.575-3.3A3.02 3.02 0 0 0 18 13.5a2.985 2.985 0 0 0-2.5-2.95v-3.3h-1v3.3c-1.425.25-2.5 1.475-2.5 2.95 0 .975.475 1.875 1.25 2.45l-.575 3.3H10.5zm3.55-4A1.991 1.991 0 0 1 13 13.5c0-1.1.9-2 2-2s2 .9 2 2c0 .725-.4 1.4-1.05 1.75l-.325.175.7 3.825h-2.65l.675-3.825-.3-.175z"/></symbol><symbol id="icon-telegram" viewBox="0 0 32 32"><path d="M32 0 0 18l10.227 3.788L26 7 14.002 23.186l.01.004-.012-.004V32l5.735-6.691L27 28l5-28z"/></symbol><symbol id="icon-quality" viewBox="0 0 32 32"><path d="m16 3.653 2.853 1.653h3.307l1.653 2.88 2.88 1.653v3.307l1.653 2.853-1.653 2.853v3.307l-2.88 1.653-1.653 2.88h-3.307L16 28.345l-2.853-1.653H9.84l-1.653-2.88-2.88-1.653v-3.307l-1.653-2.853 1.653-2.853V9.839l2.88-1.653 1.653-2.88h3.307z"/><path fill="#fff" d="M16 25.04c-4.987 0-9.04-4.053-9.04-9.04S11.013 6.96 16 6.96s9.04 4.053 9.04 9.04-4.053 9.04-9.04 9.04zm0-17.307c-4.56 0-8.267 3.707-8.267 8.267S11.44 24.267 16 24.267 24.267 20.56 24.267 16 20.56 7.733 16 7.733z"/><path fill="#fff" d="m15.013 19.36-3.92-3.12c-.32-.267-.373-.72-.107-1.04s.72-.373 1.04-.107l3.36 2.693 4.48-5.013c.267-.293.747-.32 1.04-.053s.32.747.053 1.04l-4.933 5.52a.745.745 0 0 1-1.013.08z"/></symbol></defs></svg>